<svg xmlns="http://www.w3.org/2000/svg" width="128" height="128" viewBox="0 0 128 128">
  <defs>
    <linearGradient id="bg" x1="0%" y1="0%" x2="100%" y2="100%">
      <stop offset="0%" style="stop-color:#A29BFE"/>
      <stop offset="100%" style="stop-color:#6C5CE7"/>
    </linearGradient>
    <linearGradient id="badge" x1="0%" y1="0%" x2="100%" y2="100%">
      <stop offset="0%" style="stop-color:#FDCB6E"/>
      <stop offset="100%" style="stop-color:#E17055"/>
    </linearGradient>
  </defs>
  <rect x="4" y="4" width="120" height="120" rx="24" fill="url(#bg)"/>
  <g transform="translate(20, 22)">
    <rect x="0" y="0" width="88" height="84" rx="6" fill="rgba(255,255,255,0.15)"/>
    <line x1="14" y1="16" x2="74" y2="16" stroke="rgba(255,255,255,0.3)" stroke-width="1"/>
    <rect x="14" y="24" width="28" height="6" rx="2" fill="rgba(255,255,255,0.7)"/>
    <rect x="14" y="36" width="50" height="4" rx="2" fill="rgba(255,255,255,0.4)"/>
    <rect x="14" y="44" width="45" height="4" rx="2" fill="rgba(255,255,255,0.4)"/>
    <rect x="14" y="56" width="28" height="6" rx="2" fill="rgba(255,255,255,0.7)"/>
    <rect x="14" y="68" width="50" height="4" rx="2" fill="rgba(255,255,255,0.4)"/>
    <rect x="14" y="76" width="45" height="4" rx="2" fill="rgba(255,255,255,0.4)"/>
    <circle cx="10" cy="27" r="3" fill="#55EFC4"/>
    <circle cx="10" cy="59" r="3" fill="#55EFC4"/>
  </g>
  <g transform="translate(74, 16)">
    <rect x="-16" y="-12" width="32" height="24" rx="12" fill="url(#badge)" stroke="rgba(255,255,255,0.3)" stroke-width="1"/>
    <text x="0" y="3" text-anchor="middle" fill="#fff" font-size="11" font-weight="bold" font-family="Arial">RG</text>
  </g>
</svg>
